<mxfile host="app.diagrams.net" agent="Mozilla/5.0 (Windows NT 10.0; Win64; x64) AppleWebKit/537.36 (KHTML, like Gecko) Chrome/129.0.0.0 Safari/537.36" version="24.7.17">
  <diagram name="Página-1" id="HoXf47WFV-QCanWBW4ab">
    <mxGraphModel dx="4161" dy="827" grid="1" gridSize="10" guides="1" tooltips="1" connect="1" arrows="1" fold="1" page="1" pageScale="1" pageWidth="827" pageHeight="1169" math="0" shadow="0">
      <root>
        <mxCell id="0" />
        <mxCell id="1" parent="0" />
        <mxCell id="oYumdoI9Zf8ITEk_Z7Kk-7" value="Do Lar - Analise Crédito" style="swimlane;horizontal=0;whiteSpace=wrap;html=1;" parent="1" vertex="1">
          <mxGeometry x="-413" y="80" width="20" height="520" as="geometry" />
        </mxCell>
        <mxCell id="oYumdoI9Zf8ITEk_Z7Kk-10" value="Cliente&amp;nbsp; &amp;nbsp; &amp;nbsp; &amp;nbsp; &amp;nbsp; &amp;nbsp; &amp;nbsp; &amp;nbsp; &amp;nbsp; &amp;nbsp; &amp;nbsp; &amp;nbsp; &amp;nbsp; &amp;nbsp; &amp;nbsp; &amp;nbsp; &amp;nbsp; &amp;nbsp; Analista&amp;nbsp; &amp;nbsp; &amp;nbsp; &amp;nbsp; &amp;nbsp; &amp;nbsp; &amp;nbsp; &amp;nbsp; &amp;nbsp; &amp;nbsp; &amp;nbsp; &amp;nbsp; &amp;nbsp; &amp;nbsp; &amp;nbsp; Gerente de crédito" style="swimlane;horizontal=0;whiteSpace=wrap;html=1;" parent="1" vertex="1">
          <mxGeometry x="-393" y="80" width="870" height="520" as="geometry" />
        </mxCell>
        <mxCell id="oYumdoI9Zf8ITEk_Z7Kk-14" value="" style="endArrow=none;html=1;rounded=0;entryX=1;entryY=0.25;entryDx=0;entryDy=0;" parent="oYumdoI9Zf8ITEk_Z7Kk-10" edge="1">
          <mxGeometry width="50" height="50" relative="1" as="geometry">
            <mxPoint x="24" y="220" as="sourcePoint" />
            <mxPoint x="870.0000000000005" y="222.5" as="targetPoint" />
          </mxGeometry>
        </mxCell>
        <mxCell id="oYumdoI9Zf8ITEk_Z7Kk-17" value="" style="endArrow=none;html=1;rounded=0;" parent="oYumdoI9Zf8ITEk_Z7Kk-10" edge="1">
          <mxGeometry width="50" height="50" relative="1" as="geometry">
            <mxPoint x="24" y="380" as="sourcePoint" />
            <mxPoint x="870" y="380" as="targetPoint" />
          </mxGeometry>
        </mxCell>
        <mxCell id="oYumdoI9Zf8ITEk_Z7Kk-19" value="Inicio" style="ellipse;whiteSpace=wrap;html=1;aspect=fixed;" parent="oYumdoI9Zf8ITEk_Z7Kk-10" vertex="1">
          <mxGeometry x="40" y="450" width="40" height="40" as="geometry" />
        </mxCell>
        <mxCell id="oYumdoI9Zf8ITEk_Z7Kk-20" value="Cliente solicitou o crédito" style="rounded=0;whiteSpace=wrap;html=1;" parent="oYumdoI9Zf8ITEk_Z7Kk-10" vertex="1">
          <mxGeometry x="130" y="440" width="100" height="50" as="geometry" />
        </mxCell>
        <mxCell id="oYumdoI9Zf8ITEk_Z7Kk-21" value="" style="endArrow=classic;html=1;rounded=0;exitX=1;exitY=0.5;exitDx=0;exitDy=0;" parent="oYumdoI9Zf8ITEk_Z7Kk-10" source="oYumdoI9Zf8ITEk_Z7Kk-19" target="oYumdoI9Zf8ITEk_Z7Kk-20" edge="1">
          <mxGeometry width="50" height="50" relative="1" as="geometry">
            <mxPoint x="360" y="250" as="sourcePoint" />
            <mxPoint x="410" y="200" as="targetPoint" />
          </mxGeometry>
        </mxCell>
        <mxCell id="oYumdoI9Zf8ITEk_Z7Kk-23" value="Analizou a solicitação" style="rounded=0;whiteSpace=wrap;html=1;" parent="oYumdoI9Zf8ITEk_Z7Kk-10" vertex="1">
          <mxGeometry x="130" y="270" width="100" height="50" as="geometry" />
        </mxCell>
        <mxCell id="oYumdoI9Zf8ITEk_Z7Kk-24" value="" style="endArrow=classic;html=1;rounded=0;exitX=0.5;exitY=0;exitDx=0;exitDy=0;entryX=0.5;entryY=1;entryDx=0;entryDy=0;" parent="oYumdoI9Zf8ITEk_Z7Kk-10" source="oYumdoI9Zf8ITEk_Z7Kk-20" target="oYumdoI9Zf8ITEk_Z7Kk-23" edge="1">
          <mxGeometry width="50" height="50" relative="1" as="geometry">
            <mxPoint x="280" y="230" as="sourcePoint" />
            <mxPoint x="330" y="180" as="targetPoint" />
          </mxGeometry>
        </mxCell>
        <mxCell id="oYumdoI9Zf8ITEk_Z7Kk-25" value="" style="rhombus;whiteSpace=wrap;html=1;" parent="oYumdoI9Zf8ITEk_Z7Kk-10" vertex="1">
          <mxGeometry x="284" y="262.03" width="70" height="65.94" as="geometry" />
        </mxCell>
        <mxCell id="oYumdoI9Zf8ITEk_Z7Kk-27" value="Crédito aprovado?" style="text;html=1;align=center;verticalAlign=middle;resizable=0;points=[];autosize=1;strokeColor=none;fillColor=none;" parent="oYumdoI9Zf8ITEk_Z7Kk-10" vertex="1">
          <mxGeometry x="259" y="320" width="120" height="30" as="geometry" />
        </mxCell>
        <mxCell id="oYumdoI9Zf8ITEk_Z7Kk-29" value="Liberou o crédito para o cliente" style="rounded=0;whiteSpace=wrap;html=1;" parent="oYumdoI9Zf8ITEk_Z7Kk-10" vertex="1">
          <mxGeometry x="480" y="270" width="100" height="50" as="geometry" />
        </mxCell>
        <mxCell id="oYumdoI9Zf8ITEk_Z7Kk-31" value="Fim" style="ellipse;whiteSpace=wrap;html=1;aspect=fixed;" parent="oYumdoI9Zf8ITEk_Z7Kk-10" vertex="1">
          <mxGeometry x="760" y="275" width="40" height="40" as="geometry" />
        </mxCell>
        <mxCell id="oYumdoI9Zf8ITEk_Z7Kk-32" value="" style="endArrow=classic;html=1;rounded=0;exitX=1;exitY=0.5;exitDx=0;exitDy=0;entryX=0;entryY=0.5;entryDx=0;entryDy=0;" parent="oYumdoI9Zf8ITEk_Z7Kk-10" source="oYumdoI9Zf8ITEk_Z7Kk-25" target="oYumdoI9Zf8ITEk_Z7Kk-29" edge="1">
          <mxGeometry width="50" height="50" relative="1" as="geometry">
            <mxPoint x="370" y="190" as="sourcePoint" />
            <mxPoint x="420" y="140" as="targetPoint" />
          </mxGeometry>
        </mxCell>
        <mxCell id="oYumdoI9Zf8ITEk_Z7Kk-52" value="SIM" style="edgeLabel;html=1;align=center;verticalAlign=middle;resizable=0;points=[];" parent="oYumdoI9Zf8ITEk_Z7Kk-32" vertex="1" connectable="0">
          <mxGeometry x="-0.112" relative="1" as="geometry">
            <mxPoint as="offset" />
          </mxGeometry>
        </mxCell>
        <mxCell id="oYumdoI9Zf8ITEk_Z7Kk-34" value="" style="endArrow=classic;html=1;rounded=0;exitX=1;exitY=0.5;exitDx=0;exitDy=0;entryX=0;entryY=0.5;entryDx=0;entryDy=0;" parent="oYumdoI9Zf8ITEk_Z7Kk-10" source="oYumdoI9Zf8ITEk_Z7Kk-23" target="oYumdoI9Zf8ITEk_Z7Kk-25" edge="1">
          <mxGeometry width="50" height="50" relative="1" as="geometry">
            <mxPoint x="370" y="190" as="sourcePoint" />
            <mxPoint x="420" y="140" as="targetPoint" />
          </mxGeometry>
        </mxCell>
        <mxCell id="oYumdoI9Zf8ITEk_Z7Kk-35" value="" style="endArrow=classic;html=1;rounded=0;exitX=1;exitY=0.5;exitDx=0;exitDy=0;entryX=0;entryY=0.5;entryDx=0;entryDy=0;" parent="oYumdoI9Zf8ITEk_Z7Kk-10" source="oYumdoI9Zf8ITEk_Z7Kk-29" target="oYumdoI9Zf8ITEk_Z7Kk-31" edge="1">
          <mxGeometry width="50" height="50" relative="1" as="geometry">
            <mxPoint x="370" y="190" as="sourcePoint" />
            <mxPoint x="420" y="140" as="targetPoint" />
          </mxGeometry>
        </mxCell>
        <mxCell id="oYumdoI9Zf8ITEk_Z7Kk-37" value="Vericou se o cliente atende as exceções" style="rounded=0;whiteSpace=wrap;html=1;" parent="oYumdoI9Zf8ITEk_Z7Kk-10" vertex="1">
          <mxGeometry x="269" y="120" width="100" height="50" as="geometry" />
        </mxCell>
        <mxCell id="oYumdoI9Zf8ITEk_Z7Kk-38" value="" style="rhombus;whiteSpace=wrap;html=1;" parent="oYumdoI9Zf8ITEk_Z7Kk-10" vertex="1">
          <mxGeometry x="440" y="112.03" width="70" height="65.94" as="geometry" />
        </mxCell>
        <mxCell id="oYumdoI9Zf8ITEk_Z7Kk-39" value="Registrou a rejeição do crédito" style="rounded=0;whiteSpace=wrap;html=1;" parent="oYumdoI9Zf8ITEk_Z7Kk-10" vertex="1">
          <mxGeometry x="425" y="10" width="100" height="50" as="geometry" />
        </mxCell>
        <mxCell id="oYumdoI9Zf8ITEk_Z7Kk-50" style="edgeStyle=orthogonalEdgeStyle;rounded=0;orthogonalLoop=1;jettySize=auto;html=1;exitX=1;exitY=0.25;exitDx=0;exitDy=0;entryX=0.5;entryY=0;entryDx=0;entryDy=0;" parent="oYumdoI9Zf8ITEk_Z7Kk-10" source="oYumdoI9Zf8ITEk_Z7Kk-41" target="oYumdoI9Zf8ITEk_Z7Kk-31" edge="1">
          <mxGeometry relative="1" as="geometry" />
        </mxCell>
        <mxCell id="oYumdoI9Zf8ITEk_Z7Kk-41" value="Liberou o crédito para o cliente" style="rounded=0;whiteSpace=wrap;html=1;" parent="oYumdoI9Zf8ITEk_Z7Kk-10" vertex="1">
          <mxGeometry x="620" y="120" width="100" height="50" as="geometry" />
        </mxCell>
        <mxCell id="oYumdoI9Zf8ITEk_Z7Kk-44" value="" style="endArrow=classic;html=1;rounded=0;exitX=1;exitY=0.5;exitDx=0;exitDy=0;entryX=0;entryY=0.5;entryDx=0;entryDy=0;" parent="oYumdoI9Zf8ITEk_Z7Kk-10" source="oYumdoI9Zf8ITEk_Z7Kk-37" target="oYumdoI9Zf8ITEk_Z7Kk-38" edge="1">
          <mxGeometry width="50" height="50" relative="1" as="geometry">
            <mxPoint x="410" y="270" as="sourcePoint" />
            <mxPoint x="460" y="220" as="targetPoint" />
          </mxGeometry>
        </mxCell>
        <mxCell id="oYumdoI9Zf8ITEk_Z7Kk-45" value="" style="endArrow=classic;html=1;rounded=0;exitX=1;exitY=0.5;exitDx=0;exitDy=0;entryX=0;entryY=0.5;entryDx=0;entryDy=0;" parent="oYumdoI9Zf8ITEk_Z7Kk-10" source="oYumdoI9Zf8ITEk_Z7Kk-38" target="oYumdoI9Zf8ITEk_Z7Kk-41" edge="1">
          <mxGeometry width="50" height="50" relative="1" as="geometry">
            <mxPoint x="410" y="270" as="sourcePoint" />
            <mxPoint x="460" y="220" as="targetPoint" />
          </mxGeometry>
        </mxCell>
        <mxCell id="oYumdoI9Zf8ITEk_Z7Kk-55" value="Sim" style="edgeLabel;html=1;align=center;verticalAlign=middle;resizable=0;points=[];" parent="oYumdoI9Zf8ITEk_Z7Kk-45" vertex="1" connectable="0">
          <mxGeometry x="-0.2066" y="-3" relative="1" as="geometry">
            <mxPoint as="offset" />
          </mxGeometry>
        </mxCell>
        <mxCell id="oYumdoI9Zf8ITEk_Z7Kk-46" value="Crédito aprovado?" style="text;html=1;align=center;verticalAlign=middle;resizable=0;points=[];autosize=1;strokeColor=none;fillColor=none;" parent="oYumdoI9Zf8ITEk_Z7Kk-10" vertex="1">
          <mxGeometry x="420" y="177.97000000000003" width="120" height="30" as="geometry" />
        </mxCell>
        <mxCell id="oYumdoI9Zf8ITEk_Z7Kk-47" value="" style="endArrow=classic;html=1;rounded=0;exitX=0.5;exitY=0;exitDx=0;exitDy=0;entryX=0.5;entryY=1;entryDx=0;entryDy=0;" parent="oYumdoI9Zf8ITEk_Z7Kk-10" source="oYumdoI9Zf8ITEk_Z7Kk-38" target="oYumdoI9Zf8ITEk_Z7Kk-39" edge="1">
          <mxGeometry width="50" height="50" relative="1" as="geometry">
            <mxPoint x="410" y="270" as="sourcePoint" />
            <mxPoint x="460" y="60" as="targetPoint" />
          </mxGeometry>
        </mxCell>
        <mxCell id="oYumdoI9Zf8ITEk_Z7Kk-56" value="Não" style="edgeLabel;html=1;align=center;verticalAlign=middle;resizable=0;points=[];" parent="oYumdoI9Zf8ITEk_Z7Kk-47" vertex="1" connectable="0">
          <mxGeometry x="-0.1986" y="-1" relative="1" as="geometry">
            <mxPoint as="offset" />
          </mxGeometry>
        </mxCell>
        <mxCell id="oYumdoI9Zf8ITEk_Z7Kk-53" value="" style="endArrow=classic;html=1;rounded=0;entryX=0.5;entryY=1;entryDx=0;entryDy=0;exitX=0.5;exitY=0;exitDx=0;exitDy=0;" parent="oYumdoI9Zf8ITEk_Z7Kk-10" source="oYumdoI9Zf8ITEk_Z7Kk-25" target="oYumdoI9Zf8ITEk_Z7Kk-37" edge="1">
          <mxGeometry width="50" height="50" relative="1" as="geometry">
            <mxPoint x="430" y="190" as="sourcePoint" />
            <mxPoint x="480" y="140" as="targetPoint" />
          </mxGeometry>
        </mxCell>
        <mxCell id="oYumdoI9Zf8ITEk_Z7Kk-54" value="Não" style="edgeLabel;html=1;align=center;verticalAlign=middle;resizable=0;points=[];" parent="oYumdoI9Zf8ITEk_Z7Kk-53" vertex="1" connectable="0">
          <mxGeometry x="-0.4679" y="-4" relative="1" as="geometry">
            <mxPoint as="offset" />
          </mxGeometry>
        </mxCell>
        <mxCell id="oYumdoI9Zf8ITEk_Z7Kk-57" value="Analise - Pedido" style="swimlane;horizontal=0;whiteSpace=wrap;html=1;" parent="1" vertex="1">
          <mxGeometry x="-413" y="770" width="20" height="520" as="geometry" />
        </mxCell>
        <mxCell id="oYumdoI9Zf8ITEk_Z7Kk-58" value="Cliente" style="swimlane;horizontal=0;whiteSpace=wrap;html=1;" parent="1" vertex="1">
          <mxGeometry x="-393" y="770" width="870" height="520" as="geometry" />
        </mxCell>
        <mxCell id="oYumdoI9Zf8ITEk_Z7Kk-95" style="edgeStyle=orthogonalEdgeStyle;rounded=0;orthogonalLoop=1;jettySize=auto;html=1;exitX=1;exitY=0.5;exitDx=0;exitDy=0;" parent="oYumdoI9Zf8ITEk_Z7Kk-58" source="oYumdoI9Zf8ITEk_Z7Kk-87" target="oYumdoI9Zf8ITEk_Z7Kk-89" edge="1">
          <mxGeometry relative="1" as="geometry">
            <mxPoint x="76.5" y="410.0000000000002" as="sourcePoint" />
          </mxGeometry>
        </mxCell>
        <mxCell id="oYumdoI9Zf8ITEk_Z7Kk-87" value="Inicio" style="ellipse;whiteSpace=wrap;html=1;aspect=fixed;" parent="oYumdoI9Zf8ITEk_Z7Kk-58" vertex="1">
          <mxGeometry x="23" y="385" width="50" height="50" as="geometry" />
        </mxCell>
        <mxCell id="oYumdoI9Zf8ITEk_Z7Kk-96" style="edgeStyle=orthogonalEdgeStyle;rounded=0;orthogonalLoop=1;jettySize=auto;html=1;exitX=1;exitY=0.5;exitDx=0;exitDy=0;entryX=0;entryY=0.5;entryDx=0;entryDy=0;" parent="oYumdoI9Zf8ITEk_Z7Kk-58" source="oYumdoI9Zf8ITEk_Z7Kk-89" target="oYumdoI9Zf8ITEk_Z7Kk-90" edge="1">
          <mxGeometry relative="1" as="geometry" />
        </mxCell>
        <mxCell id="oYumdoI9Zf8ITEk_Z7Kk-89" value="Foi no restaurante" style="rounded=0;whiteSpace=wrap;html=1;" parent="oYumdoI9Zf8ITEk_Z7Kk-58" vertex="1">
          <mxGeometry x="139.5" y="385" width="100" height="50" as="geometry" />
        </mxCell>
        <mxCell id="oYumdoI9Zf8ITEk_Z7Kk-103" style="edgeStyle=orthogonalEdgeStyle;rounded=0;orthogonalLoop=1;jettySize=auto;html=1;exitX=1;exitY=0.5;exitDx=0;exitDy=0;entryX=0;entryY=0.5;entryDx=0;entryDy=0;" parent="oYumdoI9Zf8ITEk_Z7Kk-58" source="oYumdoI9Zf8ITEk_Z7Kk-90" target="oYumdoI9Zf8ITEk_Z7Kk-102" edge="1">
          <mxGeometry relative="1" as="geometry" />
        </mxCell>
        <mxCell id="oYumdoI9Zf8ITEk_Z7Kk-113" value="Não" style="edgeLabel;html=1;align=center;verticalAlign=middle;resizable=0;points=[];" parent="oYumdoI9Zf8ITEk_Z7Kk-103" vertex="1" connectable="0">
          <mxGeometry x="-0.2784" y="1" relative="1" as="geometry">
            <mxPoint as="offset" />
          </mxGeometry>
        </mxCell>
        <mxCell id="oYumdoI9Zf8ITEk_Z7Kk-106" style="edgeStyle=orthogonalEdgeStyle;rounded=0;orthogonalLoop=1;jettySize=auto;html=1;exitX=0.5;exitY=0;exitDx=0;exitDy=0;entryX=0.5;entryY=1;entryDx=0;entryDy=0;" parent="oYumdoI9Zf8ITEk_Z7Kk-58" source="oYumdoI9Zf8ITEk_Z7Kk-90" target="oYumdoI9Zf8ITEk_Z7Kk-105" edge="1">
          <mxGeometry relative="1" as="geometry" />
        </mxCell>
        <mxCell id="oYumdoI9Zf8ITEk_Z7Kk-114" value="Sim" style="edgeLabel;html=1;align=center;verticalAlign=middle;resizable=0;points=[];" parent="oYumdoI9Zf8ITEk_Z7Kk-106" vertex="1" connectable="0">
          <mxGeometry x="0.1406" y="-5" relative="1" as="geometry">
            <mxPoint as="offset" />
          </mxGeometry>
        </mxCell>
        <mxCell id="oYumdoI9Zf8ITEk_Z7Kk-90" value="" style="rhombus;whiteSpace=wrap;html=1;" parent="oYumdoI9Zf8ITEk_Z7Kk-58" vertex="1">
          <mxGeometry x="329.5" y="380" width="70" height="60" as="geometry" />
        </mxCell>
        <mxCell id="oYumdoI9Zf8ITEk_Z7Kk-97" value="Exite mesa disponíve?" style="text;html=1;align=center;verticalAlign=middle;resizable=0;points=[];autosize=1;strokeColor=none;fillColor=none;" parent="oYumdoI9Zf8ITEk_Z7Kk-58" vertex="1">
          <mxGeometry x="294.5" y="450" width="140" height="30" as="geometry" />
        </mxCell>
        <mxCell id="oYumdoI9Zf8ITEk_Z7Kk-101" value="FIM" style="ellipse;whiteSpace=wrap;html=1;aspect=fixed;" parent="oYumdoI9Zf8ITEk_Z7Kk-58" vertex="1">
          <mxGeometry x="743.5" y="195" width="50" height="50" as="geometry" />
        </mxCell>
        <mxCell id="oYumdoI9Zf8ITEk_Z7Kk-104" style="edgeStyle=orthogonalEdgeStyle;rounded=0;orthogonalLoop=1;jettySize=auto;html=1;exitX=1;exitY=0.5;exitDx=0;exitDy=0;entryX=0.5;entryY=1;entryDx=0;entryDy=0;" parent="oYumdoI9Zf8ITEk_Z7Kk-58" source="oYumdoI9Zf8ITEk_Z7Kk-102" target="oYumdoI9Zf8ITEk_Z7Kk-101" edge="1">
          <mxGeometry relative="1" as="geometry" />
        </mxCell>
        <mxCell id="oYumdoI9Zf8ITEk_Z7Kk-102" value="Vai para outro restaurante" style="rounded=0;whiteSpace=wrap;html=1;" parent="oYumdoI9Zf8ITEk_Z7Kk-58" vertex="1">
          <mxGeometry x="499.5" y="385" width="100" height="50" as="geometry" />
        </mxCell>
        <mxCell id="oYumdoI9Zf8ITEk_Z7Kk-108" style="edgeStyle=orthogonalEdgeStyle;rounded=0;orthogonalLoop=1;jettySize=auto;html=1;exitX=0.5;exitY=0;exitDx=0;exitDy=0;entryX=0.5;entryY=1;entryDx=0;entryDy=0;" parent="oYumdoI9Zf8ITEk_Z7Kk-58" source="oYumdoI9Zf8ITEk_Z7Kk-105" target="oYumdoI9Zf8ITEk_Z7Kk-107" edge="1">
          <mxGeometry relative="1" as="geometry" />
        </mxCell>
        <mxCell id="oYumdoI9Zf8ITEk_Z7Kk-105" value="Faz o pedido" style="rounded=0;whiteSpace=wrap;html=1;" parent="oYumdoI9Zf8ITEk_Z7Kk-58" vertex="1">
          <mxGeometry x="314.5" y="225" width="100" height="50" as="geometry" />
        </mxCell>
        <mxCell id="oYumdoI9Zf8ITEk_Z7Kk-110" style="edgeStyle=orthogonalEdgeStyle;rounded=0;orthogonalLoop=1;jettySize=auto;html=1;exitX=1;exitY=0.5;exitDx=0;exitDy=0;entryX=0;entryY=0.5;entryDx=0;entryDy=0;" parent="oYumdoI9Zf8ITEk_Z7Kk-58" source="oYumdoI9Zf8ITEk_Z7Kk-107" target="oYumdoI9Zf8ITEk_Z7Kk-109" edge="1">
          <mxGeometry relative="1" as="geometry" />
        </mxCell>
        <mxCell id="oYumdoI9Zf8ITEk_Z7Kk-107" value="Consome o pedido" style="rounded=0;whiteSpace=wrap;html=1;" parent="oYumdoI9Zf8ITEk_Z7Kk-58" vertex="1">
          <mxGeometry x="314.5" y="65" width="100" height="50" as="geometry" />
        </mxCell>
        <mxCell id="oYumdoI9Zf8ITEk_Z7Kk-112" style="edgeStyle=orthogonalEdgeStyle;rounded=0;orthogonalLoop=1;jettySize=auto;html=1;exitX=1;exitY=0.5;exitDx=0;exitDy=0;entryX=0.5;entryY=0;entryDx=0;entryDy=0;" parent="oYumdoI9Zf8ITEk_Z7Kk-58" source="oYumdoI9Zf8ITEk_Z7Kk-109" target="oYumdoI9Zf8ITEk_Z7Kk-101" edge="1">
          <mxGeometry relative="1" as="geometry" />
        </mxCell>
        <mxCell id="oYumdoI9Zf8ITEk_Z7Kk-109" value="Paga a conta" style="rounded=0;whiteSpace=wrap;html=1;" parent="oYumdoI9Zf8ITEk_Z7Kk-58" vertex="1">
          <mxGeometry x="579.5" y="65" width="100" height="50" as="geometry" />
        </mxCell>
        <mxCell id="oYumdoI9Zf8ITEk_Z7Kk-116" value="Do Lar - Analise Crédito" style="swimlane;horizontal=0;whiteSpace=wrap;html=1;" parent="1" vertex="1">
          <mxGeometry x="-413" y="1410" width="20" height="520" as="geometry" />
        </mxCell>
        <mxCell id="oYumdoI9Zf8ITEk_Z7Kk-117" value="Paciente&amp;nbsp; &amp;nbsp; &amp;nbsp; &amp;nbsp; &amp;nbsp; &amp;nbsp; &amp;nbsp; &amp;nbsp; &amp;nbsp; &amp;nbsp; &amp;nbsp; &amp;nbsp; &amp;nbsp; &amp;nbsp; &amp;nbsp; &amp;nbsp; &amp;nbsp; &amp;nbsp; &amp;nbsp; &amp;nbsp; &amp;nbsp; &amp;nbsp; &amp;nbsp; &amp;nbsp; &amp;nbsp; &amp;nbsp; &amp;nbsp; &amp;nbsp; &amp;nbsp; &amp;nbsp; &amp;nbsp; &amp;nbsp; &amp;nbsp;&lt;span style=&quot;background-color: initial;&quot;&gt;Atentende&lt;/span&gt;" style="swimlane;horizontal=0;whiteSpace=wrap;html=1;" parent="1" vertex="1">
          <mxGeometry x="-393" y="1410" width="870" height="520" as="geometry" />
        </mxCell>
        <mxCell id="oYumdoI9Zf8ITEk_Z7Kk-118" value="" style="endArrow=none;html=1;rounded=0;entryX=1;entryY=0.25;entryDx=0;entryDy=0;" parent="oYumdoI9Zf8ITEk_Z7Kk-117" edge="1">
          <mxGeometry width="50" height="50" relative="1" as="geometry">
            <mxPoint x="23" y="270" as="sourcePoint" />
            <mxPoint x="869.0000000000005" y="272.5" as="targetPoint" />
          </mxGeometry>
        </mxCell>
        <mxCell id="oYumdoI9Zf8ITEk_Z7Kk-148" style="edgeStyle=orthogonalEdgeStyle;rounded=0;orthogonalLoop=1;jettySize=auto;html=1;exitX=1;exitY=0.5;exitDx=0;exitDy=0;entryX=0;entryY=0.5;entryDx=0;entryDy=0;" parent="oYumdoI9Zf8ITEk_Z7Kk-117" source="oYumdoI9Zf8ITEk_Z7Kk-146" target="oYumdoI9Zf8ITEk_Z7Kk-147" edge="1">
          <mxGeometry relative="1" as="geometry" />
        </mxCell>
        <mxCell id="oYumdoI9Zf8ITEk_Z7Kk-146" value="Inicio" style="ellipse;whiteSpace=wrap;html=1;aspect=fixed;" parent="oYumdoI9Zf8ITEk_Z7Kk-117" vertex="1">
          <mxGeometry x="53" y="430" width="50" height="50" as="geometry" />
        </mxCell>
        <mxCell id="oYumdoI9Zf8ITEk_Z7Kk-150" style="edgeStyle=orthogonalEdgeStyle;rounded=0;orthogonalLoop=1;jettySize=auto;html=1;exitX=0.5;exitY=0;exitDx=0;exitDy=0;" parent="oYumdoI9Zf8ITEk_Z7Kk-117" source="oYumdoI9Zf8ITEk_Z7Kk-147" target="oYumdoI9Zf8ITEk_Z7Kk-149" edge="1">
          <mxGeometry relative="1" as="geometry" />
        </mxCell>
        <mxCell id="oYumdoI9Zf8ITEk_Z7Kk-147" value="Solicita o agendamento de uma consulta" style="rounded=0;whiteSpace=wrap;html=1;" parent="oYumdoI9Zf8ITEk_Z7Kk-117" vertex="1">
          <mxGeometry x="173" y="430" width="100" height="50" as="geometry" />
        </mxCell>
        <mxCell id="oYumdoI9Zf8ITEk_Z7Kk-152" style="edgeStyle=orthogonalEdgeStyle;rounded=0;orthogonalLoop=1;jettySize=auto;html=1;exitX=1;exitY=0.5;exitDx=0;exitDy=0;entryX=0;entryY=0.5;entryDx=0;entryDy=0;" parent="oYumdoI9Zf8ITEk_Z7Kk-117" source="oYumdoI9Zf8ITEk_Z7Kk-149" target="oYumdoI9Zf8ITEk_Z7Kk-151" edge="1">
          <mxGeometry relative="1" as="geometry" />
        </mxCell>
        <mxCell id="oYumdoI9Zf8ITEk_Z7Kk-149" value="Recebe a solicitação" style="rounded=0;whiteSpace=wrap;html=1;" parent="oYumdoI9Zf8ITEk_Z7Kk-117" vertex="1">
          <mxGeometry x="173" y="190" width="100" height="50" as="geometry" />
        </mxCell>
        <mxCell id="oYumdoI9Zf8ITEk_Z7Kk-154" style="edgeStyle=orthogonalEdgeStyle;rounded=0;orthogonalLoop=1;jettySize=auto;html=1;exitX=1;exitY=0.5;exitDx=0;exitDy=0;entryX=0;entryY=0.5;entryDx=0;entryDy=0;" parent="oYumdoI9Zf8ITEk_Z7Kk-117" source="oYumdoI9Zf8ITEk_Z7Kk-151" target="oYumdoI9Zf8ITEk_Z7Kk-153" edge="1">
          <mxGeometry relative="1" as="geometry" />
        </mxCell>
        <mxCell id="oYumdoI9Zf8ITEk_Z7Kk-151" value="Verifica se o dia/hora está disponivél" style="rounded=0;whiteSpace=wrap;html=1;" parent="oYumdoI9Zf8ITEk_Z7Kk-117" vertex="1">
          <mxGeometry x="333" y="190" width="100" height="50" as="geometry" />
        </mxCell>
        <mxCell id="oYumdoI9Zf8ITEk_Z7Kk-158" style="edgeStyle=orthogonalEdgeStyle;rounded=0;orthogonalLoop=1;jettySize=auto;html=1;exitX=0.5;exitY=0;exitDx=0;exitDy=0;entryX=0.5;entryY=1;entryDx=0;entryDy=0;" parent="oYumdoI9Zf8ITEk_Z7Kk-117" source="oYumdoI9Zf8ITEk_Z7Kk-153" target="oYumdoI9Zf8ITEk_Z7Kk-156" edge="1">
          <mxGeometry relative="1" as="geometry" />
        </mxCell>
        <mxCell id="oYumdoI9Zf8ITEk_Z7Kk-163" value="NÃO" style="edgeLabel;html=1;align=center;verticalAlign=middle;resizable=0;points=[];" parent="oYumdoI9Zf8ITEk_Z7Kk-158" vertex="1" connectable="0">
          <mxGeometry x="-0.2099" y="1" relative="1" as="geometry">
            <mxPoint as="offset" />
          </mxGeometry>
        </mxCell>
        <mxCell id="oYumdoI9Zf8ITEk_Z7Kk-159" style="edgeStyle=orthogonalEdgeStyle;rounded=0;orthogonalLoop=1;jettySize=auto;html=1;exitX=1;exitY=0.5;exitDx=0;exitDy=0;entryX=0;entryY=0.5;entryDx=0;entryDy=0;" parent="oYumdoI9Zf8ITEk_Z7Kk-117" source="oYumdoI9Zf8ITEk_Z7Kk-153" target="oYumdoI9Zf8ITEk_Z7Kk-157" edge="1">
          <mxGeometry relative="1" as="geometry" />
        </mxCell>
        <mxCell id="oYumdoI9Zf8ITEk_Z7Kk-162" value="SIM" style="edgeLabel;html=1;align=center;verticalAlign=middle;resizable=0;points=[];" parent="oYumdoI9Zf8ITEk_Z7Kk-159" vertex="1" connectable="0">
          <mxGeometry x="-0.375" y="-1" relative="1" as="geometry">
            <mxPoint as="offset" />
          </mxGeometry>
        </mxCell>
        <mxCell id="oYumdoI9Zf8ITEk_Z7Kk-153" value="" style="rhombus;whiteSpace=wrap;html=1;" parent="oYumdoI9Zf8ITEk_Z7Kk-117" vertex="1">
          <mxGeometry x="503" y="185" width="63" height="60" as="geometry" />
        </mxCell>
        <mxCell id="oYumdoI9Zf8ITEk_Z7Kk-155" value="Tá disponívél?" style="text;html=1;align=center;verticalAlign=middle;resizable=0;points=[];autosize=1;strokeColor=none;fillColor=none;" parent="oYumdoI9Zf8ITEk_Z7Kk-117" vertex="1">
          <mxGeometry x="484.5" y="240" width="100" height="30" as="geometry" />
        </mxCell>
        <mxCell id="oYumdoI9Zf8ITEk_Z7Kk-156" value="Informa o paciente para tentar outro horário" style="rounded=0;whiteSpace=wrap;html=1;" parent="oYumdoI9Zf8ITEk_Z7Kk-117" vertex="1">
          <mxGeometry x="481.75" y="60" width="105.5" height="60" as="geometry" />
        </mxCell>
        <mxCell id="oYumdoI9Zf8ITEk_Z7Kk-161" style="edgeStyle=orthogonalEdgeStyle;rounded=0;orthogonalLoop=1;jettySize=auto;html=1;exitX=1;exitY=0.5;exitDx=0;exitDy=0;entryX=0;entryY=0.5;entryDx=0;entryDy=0;" parent="oYumdoI9Zf8ITEk_Z7Kk-117" source="oYumdoI9Zf8ITEk_Z7Kk-157" target="oYumdoI9Zf8ITEk_Z7Kk-160" edge="1">
          <mxGeometry relative="1" as="geometry" />
        </mxCell>
        <mxCell id="oYumdoI9Zf8ITEk_Z7Kk-157" value="Registra o agendamento no sistema" style="rounded=0;whiteSpace=wrap;html=1;" parent="oYumdoI9Zf8ITEk_Z7Kk-117" vertex="1">
          <mxGeometry x="623" y="185" width="105.5" height="60" as="geometry" />
        </mxCell>
        <mxCell id="oYumdoI9Zf8ITEk_Z7Kk-160" value="Fim" style="ellipse;whiteSpace=wrap;html=1;aspect=fixed;" parent="oYumdoI9Zf8ITEk_Z7Kk-117" vertex="1">
          <mxGeometry x="793" y="190" width="50" height="50" as="geometry" />
        </mxCell>
        <mxCell id="stH66BpxX7Q-BfTjpB-R-1" value="SOS RUC - Escola profissionalizante" style="swimlane;horizontal=0;whiteSpace=wrap;html=1;" vertex="1" parent="1">
          <mxGeometry x="-1780" y="110" width="20" height="520" as="geometry" />
        </mxCell>
        <mxCell id="stH66BpxX7Q-BfTjpB-R-2" value="Aluno&amp;nbsp; &amp;nbsp; &amp;nbsp; &amp;nbsp; &amp;nbsp; &amp;nbsp; &amp;nbsp; &amp;nbsp; &amp;nbsp; &amp;nbsp; &amp;nbsp; &amp;nbsp; &amp;nbsp; &amp;nbsp; &amp;nbsp; &amp;nbsp; &amp;nbsp;Recepção&amp;nbsp; &amp;nbsp; &amp;nbsp; &amp;nbsp; &amp;nbsp; &amp;nbsp; &amp;nbsp; &amp;nbsp; &amp;nbsp; &amp;nbsp; &amp;nbsp; &amp;nbsp; &amp;nbsp; &amp;nbsp; &amp;nbsp;Professor&amp;nbsp; &amp;nbsp; &amp;nbsp; &amp;nbsp; &amp;nbsp; &amp;nbsp; &amp;nbsp; &amp;nbsp; &amp;nbsp; &amp;nbsp; &amp;nbsp;" style="swimlane;horizontal=0;whiteSpace=wrap;html=1;" vertex="1" parent="1">
          <mxGeometry x="-1760" y="110" width="870" height="520" as="geometry" />
        </mxCell>
        <mxCell id="stH66BpxX7Q-BfTjpB-R-3" value="" style="endArrow=none;html=1;rounded=0;entryX=1;entryY=0.25;entryDx=0;entryDy=0;" edge="1" parent="stH66BpxX7Q-BfTjpB-R-2">
          <mxGeometry width="50" height="50" relative="1" as="geometry">
            <mxPoint x="24" y="220" as="sourcePoint" />
            <mxPoint x="870.0000000000005" y="222.5" as="targetPoint" />
          </mxGeometry>
        </mxCell>
        <mxCell id="stH66BpxX7Q-BfTjpB-R-4" value="" style="endArrow=none;html=1;rounded=0;" edge="1" parent="stH66BpxX7Q-BfTjpB-R-2">
          <mxGeometry width="50" height="50" relative="1" as="geometry">
            <mxPoint x="24" y="380" as="sourcePoint" />
            <mxPoint x="870" y="380" as="targetPoint" />
          </mxGeometry>
        </mxCell>
        <mxCell id="stH66BpxX7Q-BfTjpB-R-5" value="Inicio" style="ellipse;whiteSpace=wrap;html=1;aspect=fixed;" vertex="1" parent="stH66BpxX7Q-BfTjpB-R-2">
          <mxGeometry x="40" y="450" width="40" height="40" as="geometry" />
        </mxCell>
        <mxCell id="stH66BpxX7Q-BfTjpB-R-32" style="edgeStyle=orthogonalEdgeStyle;rounded=0;orthogonalLoop=1;jettySize=auto;html=1;exitX=1;exitY=0.5;exitDx=0;exitDy=0;entryX=0;entryY=0.5;entryDx=0;entryDy=0;" edge="1" parent="stH66BpxX7Q-BfTjpB-R-2" source="stH66BpxX7Q-BfTjpB-R-6" target="stH66BpxX7Q-BfTjpB-R-31">
          <mxGeometry relative="1" as="geometry" />
        </mxCell>
        <mxCell id="stH66BpxX7Q-BfTjpB-R-6" value="Demostrou interesse em um curso" style="rounded=0;whiteSpace=wrap;html=1;" vertex="1" parent="stH66BpxX7Q-BfTjpB-R-2">
          <mxGeometry x="140" y="445" width="100" height="50" as="geometry" />
        </mxCell>
        <mxCell id="stH66BpxX7Q-BfTjpB-R-7" value="" style="endArrow=classic;html=1;rounded=0;exitX=1;exitY=0.5;exitDx=0;exitDy=0;" edge="1" parent="stH66BpxX7Q-BfTjpB-R-2" source="stH66BpxX7Q-BfTjpB-R-5" target="stH66BpxX7Q-BfTjpB-R-6">
          <mxGeometry width="50" height="50" relative="1" as="geometry">
            <mxPoint x="360" y="250" as="sourcePoint" />
            <mxPoint x="410" y="200" as="targetPoint" />
          </mxGeometry>
        </mxCell>
        <mxCell id="stH66BpxX7Q-BfTjpB-R-34" style="edgeStyle=orthogonalEdgeStyle;rounded=0;orthogonalLoop=1;jettySize=auto;html=1;exitX=1;exitY=0.5;exitDx=0;exitDy=0;" edge="1" parent="stH66BpxX7Q-BfTjpB-R-2" source="stH66BpxX7Q-BfTjpB-R-31" target="stH66BpxX7Q-BfTjpB-R-33">
          <mxGeometry relative="1" as="geometry" />
        </mxCell>
        <mxCell id="stH66BpxX7Q-BfTjpB-R-31" value="Visualizou cursos disponíveis" style="rounded=0;whiteSpace=wrap;html=1;" vertex="1" parent="stH66BpxX7Q-BfTjpB-R-2">
          <mxGeometry x="310" y="445" width="100" height="50" as="geometry" />
        </mxCell>
        <mxCell id="stH66BpxX7Q-BfTjpB-R-36" style="edgeStyle=orthogonalEdgeStyle;rounded=0;orthogonalLoop=1;jettySize=auto;html=1;exitX=1;exitY=0.5;exitDx=0;exitDy=0;entryX=0;entryY=0.5;entryDx=0;entryDy=0;" edge="1" parent="stH66BpxX7Q-BfTjpB-R-2" source="stH66BpxX7Q-BfTjpB-R-33" target="stH66BpxX7Q-BfTjpB-R-35">
          <mxGeometry relative="1" as="geometry" />
        </mxCell>
        <mxCell id="stH66BpxX7Q-BfTjpB-R-40" style="edgeStyle=orthogonalEdgeStyle;rounded=0;orthogonalLoop=1;jettySize=auto;html=1;exitX=0.5;exitY=0;exitDx=0;exitDy=0;entryX=0.5;entryY=1;entryDx=0;entryDy=0;" edge="1" parent="stH66BpxX7Q-BfTjpB-R-2" source="stH66BpxX7Q-BfTjpB-R-33" target="stH66BpxX7Q-BfTjpB-R-37">
          <mxGeometry relative="1" as="geometry" />
        </mxCell>
        <mxCell id="stH66BpxX7Q-BfTjpB-R-33" value="Increveu-se em um curso" style="rounded=0;whiteSpace=wrap;html=1;" vertex="1" parent="stH66BpxX7Q-BfTjpB-R-2">
          <mxGeometry x="470" y="445" width="100" height="50" as="geometry" />
        </mxCell>
        <mxCell id="stH66BpxX7Q-BfTjpB-R-45" style="edgeStyle=orthogonalEdgeStyle;rounded=0;orthogonalLoop=1;jettySize=auto;html=1;exitX=1;exitY=0.5;exitDx=0;exitDy=0;entryX=0.5;entryY=1;entryDx=0;entryDy=0;" edge="1" parent="stH66BpxX7Q-BfTjpB-R-2" source="stH66BpxX7Q-BfTjpB-R-35" target="stH66BpxX7Q-BfTjpB-R-43">
          <mxGeometry relative="1" as="geometry" />
        </mxCell>
        <mxCell id="stH66BpxX7Q-BfTjpB-R-35" value="Assite aula" style="rounded=0;whiteSpace=wrap;html=1;" vertex="1" parent="stH66BpxX7Q-BfTjpB-R-2">
          <mxGeometry x="630" y="445" width="100" height="50" as="geometry" />
        </mxCell>
        <mxCell id="stH66BpxX7Q-BfTjpB-R-41" style="edgeStyle=orthogonalEdgeStyle;rounded=0;orthogonalLoop=1;jettySize=auto;html=1;exitX=1;exitY=0.5;exitDx=0;exitDy=0;entryX=0;entryY=0.5;entryDx=0;entryDy=0;" edge="1" parent="stH66BpxX7Q-BfTjpB-R-2" source="stH66BpxX7Q-BfTjpB-R-37" target="stH66BpxX7Q-BfTjpB-R-38">
          <mxGeometry relative="1" as="geometry" />
        </mxCell>
        <mxCell id="stH66BpxX7Q-BfTjpB-R-37" value="Recebeu inscrição" style="rounded=0;whiteSpace=wrap;html=1;" vertex="1" parent="stH66BpxX7Q-BfTjpB-R-2">
          <mxGeometry x="470" y="280" width="100" height="50" as="geometry" />
        </mxCell>
        <mxCell id="stH66BpxX7Q-BfTjpB-R-42" style="edgeStyle=orthogonalEdgeStyle;rounded=0;orthogonalLoop=1;jettySize=auto;html=1;exitX=0.5;exitY=0;exitDx=0;exitDy=0;entryX=0.5;entryY=1;entryDx=0;entryDy=0;" edge="1" parent="stH66BpxX7Q-BfTjpB-R-2" source="stH66BpxX7Q-BfTjpB-R-38" target="stH66BpxX7Q-BfTjpB-R-39">
          <mxGeometry relative="1" as="geometry" />
        </mxCell>
        <mxCell id="stH66BpxX7Q-BfTjpB-R-38" value="Organizou turma" style="rounded=0;whiteSpace=wrap;html=1;" vertex="1" parent="stH66BpxX7Q-BfTjpB-R-2">
          <mxGeometry x="630" y="280" width="100" height="50" as="geometry" />
        </mxCell>
        <mxCell id="stH66BpxX7Q-BfTjpB-R-44" style="edgeStyle=orthogonalEdgeStyle;rounded=0;orthogonalLoop=1;jettySize=auto;html=1;exitX=1;exitY=0.5;exitDx=0;exitDy=0;" edge="1" parent="stH66BpxX7Q-BfTjpB-R-2" source="stH66BpxX7Q-BfTjpB-R-39" target="stH66BpxX7Q-BfTjpB-R-43">
          <mxGeometry relative="1" as="geometry" />
        </mxCell>
        <mxCell id="stH66BpxX7Q-BfTjpB-R-39" value="Ministra aula" style="rounded=0;whiteSpace=wrap;html=1;" vertex="1" parent="stH66BpxX7Q-BfTjpB-R-2">
          <mxGeometry x="630" y="90" width="100" height="50" as="geometry" />
        </mxCell>
        <mxCell id="stH66BpxX7Q-BfTjpB-R-43" value="Fim" style="ellipse;whiteSpace=wrap;html=1;aspect=fixed;" vertex="1" parent="stH66BpxX7Q-BfTjpB-R-2">
          <mxGeometry x="800" y="285" width="40" height="40" as="geometry" />
        </mxCell>
      </root>
    </mxGraphModel>
  </diagram>
</mxfile>
